<svg xmlns="http://www.w3.org/2000/svg" width="64" height="64" id="community-manager"><pattern id="a" width="98" height="86" x="-504" y="-588" overflow="visible" patternUnits="userSpaceOnUse" viewBox="0 -86 98 86"><path fill="none" d="M0 0h98v-86H0z"></path><path fill="#6D6DA9" d="M98 0H0v-86h98z"></path></pattern><path fill="#F5CD95" d="M36.693 30.487a4.7 4.7 0 0 1-4.684 4.693H31.981a4.702 4.702 0 0 1-4.684-4.693c0-2.589 2.114-4.693 4.703-4.693a4.697 4.697 0 0 1 4.693 4.693z"></path><path fill="url(#a)" d="M54.623 46.604a5.643 5.643 0 0 0-4.015-1.668 5.637 5.637 0 0 0-3.268 1.038l-.979-.979c3.113-3.442 5.033-7.99 5.033-12.994 0-10.366-8.184-18.832-18.424-19.345v-1.377a5.687 5.687 0 0 0 4.703-5.595C37.673 2.55 35.132 0 32 0a5.69 5.69 0 0 0-5.682 5.682c0 2.802 2.036 5.13 4.713 5.595v1.377c-10.25.514-18.435 8.98-18.435 19.346 0 5.004 1.92 9.552 5.033 12.994l-.979.979a5.644 5.644 0 0 0-3.268-1.038 5.64 5.64 0 0 0-4.015 1.668c-2.211 2.211-2.211 5.808 0 8.029a5.663 5.663 0 0 0 4.015 1.658 5.659 5.659 0 0 0 4.014-1.658 5.643 5.643 0 0 0 1.668-4.015 5.637 5.637 0 0 0-1.038-3.268l.979-.989c.368.339.747.659 1.134.96a.923.923 0 0 0 .349.262 19.368 19.368 0 0 0 10.541 3.772v1.377c-2.676.465-4.713 2.793-4.713 5.595A5.685 5.685 0 0 0 32 64a5.674 5.674 0 0 0 5.673-5.673 5.687 5.687 0 0 0-4.703-5.595v-1.377a19.364 19.364 0 0 0 10.531-3.772.923.923 0 0 0 .349-.262 21.27 21.27 0 0 0 1.134-.95l.979.979a5.643 5.643 0 0 0-1.037 3.268 5.64 5.64 0 0 0 1.668 4.015 5.66 5.66 0 0 0 4.014 1.658 5.663 5.663 0 0 0 4.015-1.658 5.643 5.643 0 0 0 1.668-4.015 5.609 5.609 0 0 0-1.668-4.014zm-38.594 6.652a3.729 3.729 0 0 1-5.285 0 3.729 3.729 0 0 1 0-5.285 3.68 3.68 0 0 1 2.638-1.096c.999 0 1.939.388 2.647 1.096a3.72 3.72 0 0 1 1.096 2.647c0 .999-.388 1.939-1.096 2.638zM28.257 5.682A3.745 3.745 0 0 1 32 1.939a3.743 3.743 0 0 1 0 7.486 3.745 3.745 0 0 1-3.743-3.743zm7.476 52.645A3.74 3.74 0 0 1 32 62.06a3.743 3.743 0 0 1-3.743-3.733A3.745 3.745 0 0 1 32 54.584a3.743 3.743 0 0 1 3.733 3.743zM32 49.464h-.01c-3.762 0-7.234-1.212-10.085-3.248.524-5.091 4.81-9.047 9.988-9.096h.204a10.153 10.153 0 0 1 9.988 9.106c-2.851 2.026-6.323 3.238-10.085 3.238zm-4.703-18.977c0-2.589 2.114-4.693 4.703-4.693a4.697 4.697 0 0 1 4.693 4.693 4.7 4.7 0 0 1-4.684 4.693H31.981a4.7 4.7 0 0 1-4.684-4.693zM43.83 44.8a12.117 12.117 0 0 0-7.932-8.96c1.648-1.212 2.735-3.152 2.735-5.353A6.642 6.642 0 0 0 32 23.854c-3.665 0-6.642 2.977-6.642 6.633 0 2.201 1.076 4.141 2.734 5.353a12.117 12.117 0 0 0-7.932 8.96c-3.442-3.19-5.624-7.738-5.624-12.8 0-9.619 7.835-17.455 17.455-17.455h.01c4.81 0 9.173 1.959 12.335 5.12A17.401 17.401 0 0 1 49.456 32c-.001 5.062-2.183 9.61-5.626 12.8zm9.426 8.456a3.74 3.74 0 0 1-5.295 0 3.68 3.68 0 0 1-1.096-2.638c0-.999.388-1.939 1.096-2.647a3.718 3.718 0 0 1 2.647-1.096c.999 0 1.939.388 2.647 1.096a3.761 3.761 0 0 1 1.096 2.647 3.718 3.718 0 0 1-1.095 2.638z"></path><path fill="#F5CD95" d="M42.085 46.225c-2.851 2.027-6.322 3.239-10.085 3.239h-.01c-3.762 0-7.234-1.212-10.085-3.248.524-5.091 4.81-9.047 9.988-9.096h.204a10.148 10.148 0 0 1 9.988 9.105z"></path><path fill="#F59392" d="M49.455 32c0 5.062-2.182 9.61-5.624 12.8a12.117 12.117 0 0 0-7.932-8.96c1.648-1.212 2.735-3.152 2.735-5.353a6.642 6.642 0 0 0-6.633-6.633c-3.665 0-6.642 2.977-6.642 6.633 0 2.201 1.076 4.141 2.734 5.353a12.117 12.117 0 0 0-7.932 8.96c-3.442-3.19-5.624-7.738-5.624-12.8 0-9.619 7.835-17.455 17.455-17.455h.01c4.81 0 9.173 1.959 12.335 5.12 3.159 3.162 5.118 7.525 5.118 12.335z"></path><path fill="#CFD8EE" d="M17.125 50.618c0 .999-.388 1.939-1.096 2.638a3.729 3.729 0 0 1-5.285 0 3.729 3.729 0 0 1 0-5.285 3.68 3.68 0 0 1 2.638-1.096c.999 0 1.939.388 2.647 1.096a3.718 3.718 0 0 1 1.096 2.647zm18.608 7.709A3.74 3.74 0 0 1 32 62.06a3.743 3.743 0 0 1-3.743-3.733A3.745 3.745 0 0 1 32 54.584a3.743 3.743 0 0 1 3.733 3.743zm18.619-7.709c0 .999-.398 1.939-1.096 2.638a3.74 3.74 0 0 1-5.295 0 3.68 3.68 0 0 1-1.096-2.638c0-.999.388-1.939 1.096-2.647a3.718 3.718 0 0 1 2.647-1.096c.999 0 1.939.388 2.647 1.096a3.756 3.756 0 0 1 1.097 2.647z"></path><path fill="#F59392" d="M35.81 5.682a3.744 3.744 0 0 1-3.733 3.743 3.746 3.746 0 0 1-3.743-3.743 3.745 3.745 0 0 1 3.743-3.743 3.744 3.744 0 0 1 3.733 3.743z"></path></svg>