<svg xmlns="http://www.w3.org/2000/svg" width="32" height="32" id="video"><g color="#000" transform="translate(100.293 -1088.139)"><path fill="#e9eded" d="M-97.293 1093.139v24h26v-24h-26z" overflow="visible" style="isolation:auto;mix-blend-mode:normal"></path><path fill="#2b4255" style="line-height:normal;text-indent:0;text-align:start;text-decoration-line:none;text-decoration-style:solid;text-decoration-color:#000;text-transform:none;block-progression:tb;isolation:auto;mix-blend-mode:normal" d="M-97.793 1090.139a.5.5 0 0 0-.5.5v27a.5.5 0 0 0 .5.5h27a.5.5 0 0 0 .5-.5v-27a.5.5 0 0 0-.5-.5zm.5 3h26v24h-26z" font-family="sans-serif" font-weight="400" overflow="visible"></path><circle cx="-95.793" cy="1091.639" r=".5" fill="#f8b74e" fill-opacity=".976" overflow="visible" style="isolation:auto;mix-blend-mode:normal"></circle><circle style="isolation:auto;mix-blend-mode:normal" cx="-93.793" cy="1091.639" r=".5" fill="#25b39e" overflow="visible"></circle><circle cx="-91.793" cy="1091.639" r=".5" fill="#f05542" overflow="visible" style="isolation:auto;mix-blend-mode:normal"></circle><rect style="isolation:auto;mix-blend-mode:normal" width="22" height="2" x="-95.293" y="1112.139" fill="#576d7e" overflow="visible" rx="1" ry="1"></rect><rect width="7" height="2" x="-95.293" y="1112.139" fill="#f05542" overflow="visible" rx="1" ry="1" style="isolation:auto;mix-blend-mode:normal"></rect><path fill="#f05542" stroke="#f05542" stroke-dashoffset=".5" stroke-linecap="round" stroke-linejoin="round" stroke-width=".4" d="M-86.793 1105.632v-3l5 2.5h0l-5 2.5v-3z" overflow="visible" style="isolation:auto;mix-blend-mode:normal"></path></g></svg>